<svg width="19" height="15" viewBox="0 0 19 15" fill="none" xmlns="http://www.w3.org/2000/svg">
<g id="Group">
<path id="Vector" d="M1.51724 0C0.685438 0 0 0.685436 0 1.51724V11.3793C0 12.0716 0.572056 12.6437 1.26437 12.6437C1.65677 12.6437 2.00571 12.4616 2.23635 12.1853C2.20382 12.2243 2.2783 12.1383 2.35488 12.0589C2.43147 11.9795 2.54011 11.8766 2.66307 11.7507C2.90901 11.499 3.22517 11.17 3.54023 10.8499C3.80377 10.5821 3.84672 10.5381 4.06178 10.3204C4.16307 11.0571 4.80073 11.6322 5.56322 11.6322H13.4418C13.5652 11.7572 14.0172 12.2136 14.6034 12.8096C14.9342 13.1459 15.2703 13.4861 15.528 13.75C15.6569 13.8819 15.764 13.9989 15.8441 14.0819C15.9242 14.1649 16.0052 14.2498 15.9705 14.2083C16.2012 14.4845 16.5501 14.6667 16.9425 14.6667C17.6348 14.6667 18.2069 14.0946 18.2069 13.4023V3.54023C18.2069 2.70842 17.5215 2.02299 16.6897 2.02299H14.1609V1.51724C14.1609 0.685436 13.4755 0 12.6437 0H1.51724ZM1.51724 1.01149H12.6437C12.9326 1.01149 13.1494 1.22831 13.1494 1.51724V2.02299H5.56322C4.73141 2.02299 4.04598 2.70842 4.04598 3.54023V8.89799C4.0234 8.92107 3.44029 9.51745 2.82112 10.1466C2.5056 10.4671 2.18367 10.7861 1.93606 11.0395C1.81226 11.1663 1.70725 11.2812 1.62787 11.3635C1.54849 11.4458 1.52193 11.4655 1.46193 11.5374C1.41424 11.5945 1.34017 11.6322 1.26437 11.6322C1.11873 11.6322 1.01149 11.5249 1.01149 11.3793V1.51724C1.01149 1.22831 1.22831 1.01149 1.51724 1.01149ZM5.56322 3.03448H16.6897C16.9786 3.03448 17.1954 3.2513 17.1954 3.54023V13.4023C17.1954 13.548 17.0882 13.6552 16.9425 13.6552C16.8667 13.6552 16.7927 13.6174 16.745 13.5603C16.6829 13.486 16.6539 13.4644 16.5711 13.3786C16.4884 13.2928 16.3768 13.1795 16.2471 13.0467C15.9878 12.7812 15.6537 12.4352 15.3226 12.0984C14.6602 11.425 14.0187 10.7708 14.0187 10.7708C13.9712 10.7228 13.9145 10.6848 13.8521 10.659C13.7897 10.6332 13.7227 10.6202 13.6552 10.6207H5.56322C5.27429 10.6207 5.05747 10.4039 5.05747 10.1149V3.54023C5.05747 3.2513 5.27429 3.03448 5.56322 3.03448ZM9.80675 5.04957C9.71035 5.05895 9.61867 5.09581 9.54261 5.15578C9.46654 5.21574 9.4093 5.29629 9.37767 5.38783C9.34604 5.47938 9.34137 5.57809 9.3642 5.67221C9.38703 5.76634 9.43641 5.85194 9.50646 5.91882L10.4152 6.82759L9.50646 7.72845C9.45773 7.7748 9.41873 7.8304 9.39174 7.892C9.36475 7.9536 9.35032 8.01997 9.34929 8.08722C9.34826 8.15447 9.36065 8.22124 9.38574 8.28364C9.41083 8.34605 9.44811 8.40282 9.49541 8.45063C9.5427 8.49845 9.59905 8.53636 9.66117 8.56214C9.72329 8.58791 9.78993 8.60104 9.85719 8.60076C9.92444 8.60047 9.99096 8.58677 10.0529 8.56047C10.1148 8.53416 10.1708 8.49578 10.2177 8.44756L11.1264 7.53879L12.0352 8.44756C12.0821 8.49578 12.1381 8.53416 12.2 8.56047C12.2619 8.58677 12.3284 8.60047 12.3957 8.60076C12.4629 8.60104 12.5296 8.58791 12.5917 8.56214C12.6538 8.53636 12.7102 8.49845 12.7575 8.45063C12.8048 8.40282 12.842 8.34605 12.8671 8.28364C12.8922 8.22124 12.9046 8.15447 12.9036 8.08722C12.9026 8.01997 12.8881 7.9536 12.8611 7.892C12.8341 7.8304 12.7951 7.7748 12.7464 7.72845L11.8376 6.82759L12.7464 5.91882C12.8248 5.84516 12.8777 5.7484 12.8974 5.64262C12.9171 5.53683 12.9025 5.42752 12.8558 5.33059C12.8091 5.23365 12.7327 5.15414 12.6377 5.1036C12.5427 5.05306 12.4341 5.03413 12.3276 5.04957C12.2161 5.06567 12.1132 5.11851 12.0352 5.19971L11.1264 6.10848L10.2177 5.19971C10.1648 5.14552 10.1004 5.1039 10.0293 5.07791C9.95816 5.05193 9.88212 5.04224 9.80675 5.04957Z" fill="#363636"/>
</g>
</svg>
